<svg width="48" height="48" viewBox="0 0 48 48" xmlns="http://www.w3.org/2000/svg">
  <defs>
    <!-- Subtle background gradient -->
    <linearGradient id="backgroundGradient" x1="0%" y1="0%" x2="100%" y2="100%">
      <stop offset="0%" style="stop-color:#f1f5f9;stop-opacity:0.8" />
      <stop offset="100%" style="stop-color:#e2e8f0;stop-opacity:0.9" />
    </linearGradient>
    
    <!-- Bold foreground gradient for main elements -->
    <linearGradient id="primaryGradient" x1="0%" y1="0%" x2="100%" y2="100%">
      <stop offset="0%" style="stop-color:#059669;stop-opacity:1" />
      <stop offset="100%" style="stop-color:#0891b2;stop-opacity:1" />
    </linearGradient>
    
    <!-- Vibrant accent gradient -->
    <linearGradient id="accentGradient" x1="0%" y1="0%" x2="100%" y2="100%">
      <stop offset="0%" style="stop-color:#f97316;stop-opacity:1" />
      <stop offset="100%" style="stop-color:#ec4899;stop-opacity:1" />
    </linearGradient>
    
    <!-- White highlight -->
    <linearGradient id="whiteGradient" x1="0%" y1="0%" x2="100%" y2="100%">
      <stop offset="0%" style="stop-color:#ffffff;stop-opacity:1" />
      <stop offset="100%" style="stop-color:#f8fafc;stop-opacity:1" />
    </linearGradient>
    
    <!-- Drop shadow filter -->
    <filter id="dropShadow" x="-30%" y="-30%" width="160%" height="160%">
      <feDropShadow dx="1" dy="2" stdDeviation="2" flood-color="#000000" flood-opacity="0.1"/>
    </filter>
    
    <!-- Strong shadow for main elements -->
    <filter id="strongShadow" x="-30%" y="-30%" width="160%" height="160%">
      <feDropShadow dx="2" dy="4" stdDeviation="4" flood-color="#000000" flood-opacity="0.25"/>
    </filter>
  </defs>
  
  <!-- Subtle background circle -->
  <circle cx="24" cy="24" r="22" fill="url(#backgroundGradient)" filter="url(#dropShadow)" stroke="url(#primaryGradient)" stroke-width="1" opacity="0.6"/>
  
  <!-- Main shopping bag body - Bold and prominent -->
  <path d="M13 17 L35 17 L33 35 L15 35 Z" fill="url(#primaryGradient)" filter="url(#strongShadow)"/>
  
  <!-- Shopping bag handles - Thick and visible -->
  <path d="M17 17 L17 13 C17 9.5 20 7 24 7 C28 7 31 9.5 31 13 L31 17" 
        stroke="url(#whiteGradient)" stroke-width="3" fill="none" stroke-linecap="round" filter="url(#dropShadow)"/>
  
  <!-- Inner handle accent -->
  <path d="M17 17 L17 13 C17 9.5 20 7 24 7 C28 7 31 9.5 31 13 L31 17" 
        stroke="url(#primaryGradient)" stroke-width="1.5" fill="none" stroke-linecap="round"/>
  
  <!-- Nova star - Bright and prominent -->
  <g transform="translate(24,26)">
    <path d="M0,-6 L1.5,-1.5 L6,-1.5 L2.5,1.5 L4,6 L0,3 L-4,6 L-2.5,1.5 L-6,-1.5 L-1.5,-1.5 Z" 
          fill="url(#accentGradient)" filter="url(#strongShadow)"/>
    
    <!-- White star highlight -->
    <path d="M0,-5 L1.2,-1.2 L5,-1.2 L2,1.2 L3.2,5 L0,2.4 L-3.2,5 L-2,1.2 L-5,-1.2 L-1.2,-1.2 Z" 
          fill="url(#whiteGradient)" opacity="0.8"/>
  </g>
  
  <!-- Accent sparkles around the logo -->
  <circle cx="38" cy="12" r="2" fill="url(#accentGradient)" opacity="0.7" filter="url(#dropShadow)"/>
  <circle cx="10" cy="38" r="1.5" fill="url(#accentGradient)" opacity="0.8" filter="url(#dropShadow)"/>
  <circle cx="8" cy="14" r="1" fill="url(#primaryGradient)" opacity="0.9"/>
  <circle cx="40" cy="36" r="1" fill="url(#primaryGradient)" opacity="0.9"/>
  
  <!-- Shopping bag highlight stripe -->
  <rect x="16" y="20" width="16" height="3" rx="1.5" fill="url(#whiteGradient)" opacity="0.3"/>
  
  <!-- Bottom accent -->
  <rect x="20" y="30" width="8" height="2" rx="1" fill="url(#whiteGradient)" opacity="0.4"/>
</svg>